<svg width="100%" height="100%" viewBox="0 0 249 42" fill="none" xmlns="http://www.w3.org/2000/svg">
  <path d="M201 20.8347V1L232.945 41H216.973L201 20.8347Z" fill="white" />
  <path d="M243.648 27.6116H228.005L249 1V20.8347L243.648 27.6116Z" fill="white" />
  <rect x="139" width="2" height="42" fill="white" />
  <path
    d="M74.8115 36.5942L67.7143 35.4348V34.5072L74.5788 34.2754L74.4624 32.5362H65.7364L65.271 36.942L72.4845 38.2174V39.029L64.9219 39.3768L64.6892 41H75.2769L74.8115 36.5942ZM6.86451 35.8986L6.74816 37.5217L9.3078 37.6377V39.2609L3.83947 39.1449L4.07217 34.3913L11.5184 34.2754L11.4021 32.5362H1.74522L0.930784 41H11.8675L11.6348 35.7826L6.86451 35.8986ZM53.2872 39.029V37.5217L58.4065 37.4058V35.7826L53.1708 35.6667V34.1594L60.0353 34.0435V32.3044H50.7275L50.4948 41H60.268L60.1517 39.2609L53.2872 39.029ZM45.8409 41L44.9102 32.4203H42.4669L38.8601 36.4783L35.2533 32.4203H32.81L31.9956 41H34.9043L35.137 35.4348L38.8601 39.2609L42.5832 35.4348L42.8159 41H45.8409ZM33.5081 1H27.6907L27.2253 27.5507H34.2062L33.5081 1ZM57.243 1H39.0928L38.3947 27.5507H58.5228L57.243 1ZM51.6583 21.7536L45.2592 21.9855L44.9102 6.33333L51.6583 6.56522V21.7536ZM79 6.7971L78.3019 1H60.3844L60.6171 6.10145L66.3181 6.33333L66.8998 27.5507H73.997L71.9028 6.56522L79 6.7971ZM16.2887 27.5507H23.9676L18.9647 15.6087L22.9205 13.4058L20.2445 1H0.69809L0 6.7971L4.42121 6.68116L2.32695 27.6667H9.19146L9.42415 20.942L14.3108 18.2754L16.2887 27.5507ZM9.7732 6.33333L15.3579 6.21739L16.056 11.5507L9.5405 14.5652L9.7732 6.33333ZM24.8984 41H27.8071L25.4801 32.4203H18.4993L16.1723 41H19.081L19.5464 38.7971L24.3166 38.913L24.8984 41ZM20.0118 37.1739L20.5935 34.3913L23.3859 34.2754L23.9676 37.058L20.0118 37.1739Z"
    fill="white" />
</svg>